<?xml version="1.0" encoding="UTF-8"?>
<svg version="1.1" xmlns="http://www.w3.org/2000/svg" width="338" height="258">
<path d="M0 0 C4.02878753 3.43920887 5.9040437 8.33945352 8.28125 12.96875 C9.72196887 15.5096542 10.93200968 17.03288725 13 19 C13 19.66 13 20.32 13 21 C13.66 21 14.32 21 15 21 C16.66666667 22.66666667 18.33333333 24.33333333 20 26 C29.02164168 32.81635149 36.67843655 33.41281396 47.6484375 33.22265625 C48.98718065 33.21193525 50.32593815 33.20289259 51.66470337 33.19541931 C55.18941379 33.17272021 58.71372273 33.13381473 62.23822021 33.0894165 C95.67001067 32.66828424 95.67001067 32.66828424 111.34375 33.85546875 C112.36479828 33.93209244 113.38584656 34.00871613 114.43783569 34.08766174 C140.33252238 36.31889469 169.70204613 45.99134908 189 64 C189.5775 64.52722656 190.155 65.05445312 190.75 65.59765625 C192 67 192 67 192 69 C192.66 69 193.32 69 194 69 C214.75684656 95.42088802 219.98929132 126.19630215 217 159 C215.11330432 173.85587149 210.11949828 191.91287401 201 204 C200.34386719 204.88429687 199.68773437 205.76859375 199.01171875 206.6796875 C189.98641431 218.25387899 179.91228887 226.34186727 167 233 C166.16597656 233.46019531 165.33195312 233.92039063 164.47265625 234.39453125 C149.3209439 242.13000838 130.77906166 245.0523304 114 247 C112.87400391 247.13535156 111.74800781 247.27070313 110.58789062 247.41015625 C75.1603904 251.49582121 37.21751287 253.33297381 2 247 C0.99130859 246.82839355 -0.01738281 246.65678711 -1.05664062 246.47998047 C-33.57848814 240.83256468 -64.96144636 228.11178966 -84.875 200.625 C-93.07455845 188.06237375 -97.41780727 175.72220182 -100 161 C-100.22558594 159.73542969 -100.45117188 158.47085938 -100.68359375 157.16796875 C-101.87530258 149.71362453 -102.38140056 142.53680673 -102 135 C-101.96422852 134.24251465 -101.92845703 133.4850293 -101.89160156 132.70458984 C-100.70050399 110.12155368 -96.28584186 86.13317714 -82 68 C-81.39285156 67.21625 -80.78570312 66.4325 -80.16015625 65.625 C-71.07448292 54.62557543 -57.64577707 48.68015556 -44.75 43.16796875 C-34.73153862 38.82263901 -27.51596615 33.90753603 -20 26 C-18.71029297 24.70255859 -18.71029297 24.70255859 -17.39453125 23.37890625 C-10.56140662 16.24914986 -5.26821597 8.30584688 0 0 Z M-11.8125 96.21484375 C-15.06361281 101.10220742 -15.66070526 106.25291299 -15 112 C-13.54560825 119.08863206 -10.37456856 125.06068314 -4.26171875 129.16796875 C1.93550954 131.44777812 11.4889724 131.16527619 17.5625 128.5 C22.40020929 125.53188578 25.96684236 120.87808201 27.875 115.5625 C27.91625 114.716875 27.9575 113.87125 28 113 C28.04898438 112.32066406 28.09796875 111.64132813 28.1484375 110.94140625 C28.49165101 103.11349803 25.99499113 97.27631094 20.72265625 91.51171875 C15.81008019 87.20068262 9.81462302 86.42208443 3.453125 86.65625 C-3.19627306 87.58801279 -7.7435944 91.00708685 -11.8125 96.21484375 Z M96.1875 93.875 C92.39220864 99.2968448 89.46528401 104.36300979 90.25 111.16796875 C91.41517686 117.37877756 93.67278185 121.67278185 98.1875 126.1875 C104.36597898 130.16918645 110.25791969 131.68743606 117.57421875 130.640625 C123.76031739 129.00693712 128.52370536 125.3481456 132 120 C134.84994468 113.93870461 135.22880776 107.0517445 133.27734375 100.6171875 C130.47236134 94.64382416 126.39760992 89.90195343 120.08203125 87.5078125 C111.05534558 85.30618185 102.46822271 86.79287943 96.1875 93.875 Z M-10 160 C-12.56792724 168.45276051 -9.76434262 178.12870436 -6.3125 185.9375 C2.21102188 201.75416089 16.66787714 212.3257817 33.421875 217.96484375 C53.86392513 223.87875563 76.82169548 222.06705075 95.859375 212.57421875 C109.61587076 204.56284911 121.57782271 191.49235168 126.31640625 176.21484375 C127.46009579 170.83623523 127.51695142 165.46612567 127 160 C125.30016919 158.30016919 123.13192369 158.87390695 120.80604553 158.87301636 C119.68006454 158.87019653 118.55408356 158.86737671 117.39398193 158.86447144 C116.14772034 158.86649567 114.90145874 158.8685199 113.61743164 158.87060547 C112.31351974 158.86885315 111.00960785 158.86710083 109.66618347 158.86529541 C106.07943655 158.8607211 102.49271826 158.86251074 98.90597081 158.8656745 C95.1592725 158.86819864 91.4125767 158.86586036 87.6658783 158.86428833 C81.37173012 158.86246657 75.07759366 158.86487287 68.78344727 158.86962891 C61.49951521 158.87506918 54.21561116 158.8733106 46.93167979 158.8678025 C40.68709163 158.86326874 34.44251192 158.86262219 28.19792265 158.86524117 C24.4643266 158.86680279 20.73074372 158.86700088 16.99714851 158.86370468 C12.83540303 158.8602875 8.67370602 158.86502003 4.51196289 158.87060547 C3.26772552 158.86858124 2.02348816 158.86655701 0.74154663 158.86447144 C-0.95165459 158.86870117 -0.95165459 158.86870117 -2.67906189 158.87301636 C-4.1565914 158.8735819 -4.1565914 158.8735819 -5.66396999 158.87415886 C-8.02339872 158.84567712 -8.02339872 158.84567712 -10 160 Z " fill="#1056B4" transform="translate(117,1)"/>
<path d="M0 0 C1.30445068 0.03029297 2.60890137 0.06058594 3.95288086 0.09179688 C8.87503765 0.20557949 13.79725042 0.31676925 18.71948242 0.42724609 C20.83440694 0.47506094 22.94931648 0.52354348 25.06420898 0.57275391 C28.13521562 0.64408803 31.2062636 0.71315878 34.27734375 0.78125 C35.7843837 0.81569214 35.7843837 0.81569214 37.3218689 0.85083008 C41.90035479 0.94765112 46.47186654 1.01382192 51.05126953 0.9609375 C51.82048233 0.95284058 52.58969513 0.94474365 53.38221741 0.93640137 C55.40284509 0.90850786 57.42325724 0.86602856 59.44360352 0.82226562 C63.3302337 1.01650375 66.3193191 1.79452002 70 3 C70 2.34 70 1.68 70 1 C70.84175781 1.01160156 71.68351562 1.02320313 72.55078125 1.03515625 C82.73762757 1.10920394 92.88804503 0.7904154 103.06567383 0.35571289 C110.71530468 0.04023521 118.34411124 -0.05664618 126 0 C126 0.33 126 0.66 126 1 C121.64640395 1.48444181 117.29203023 1.96153457 112.9375 2.4375 C111.72771484 2.57220703 110.51792969 2.70691406 109.27148438 2.84570312 C92.20484148 4.70175713 75.34165335 5.2352177 58.1875 5.25 C57.05736481 5.25200409 55.92722961 5.25400818 54.7628479 5.256073 C38.30608363 5.26322805 22.25093861 4.8005897 6 2 C4.79988281 1.80277344 3.59976563 1.60554687 2.36328125 1.40234375 C1.58339844 1.26957031 0.80351563 1.13679687 0 1 C0 0.67 0 0.34 0 0 Z " fill="#2B6ABB" transform="translate(113,246)"/>
<path d="M0 0 C2.34917898 2.15341406 3.82443004 4.21667937 5.25 7.0625 C5.78367187 8.10083984 5.78367187 8.10083984 6.328125 9.16015625 C6.54984375 9.76730469 6.7715625 10.37445313 7 11 C6.67 11.66 6.34 12.32 6 13 C3.36 12.01 0.72 11.02 -2 10 C-2.38671875 10.49371094 -2.7734375 10.98742188 -3.171875 11.49609375 C-3.69265625 12.13675781 -4.2134375 12.77742187 -4.75 13.4375 C-5.51570313 14.39462891 -5.51570313 14.39462891 -6.296875 15.37109375 C-8.19667629 17.18810554 -9.43586908 17.60423197 -12 18 C-6 9 -6 9 0 0 Z " fill="#1B62B9" transform="translate(117,1)"/>
<path d="M0 0 C2.31 0 4.62 0 7 0 C7.33 0.99 7.66 1.98 8 3 C9.051875 2.95875 10.10375 2.9175 11.1875 2.875 C14.80789394 2.99370144 16.77437825 3.51795757 20 5 C23.0685577 5.95892428 25.78976585 6.08917317 29 6 C29 6.33 29 6.66 29 7 C31.31 7.66 33.62 8.32 36 9 C36 9.66 36 10.32 36 11 C29.29644314 10.4447559 23.28652605 9.12555227 16.875 7.125 C16.02035156 6.86847656 15.16570312 6.61195313 14.28515625 6.34765625 C9.36854519 4.84472906 4.68384706 3.11978986 0 1 C0 0.67 0 0.34 0 0 Z " fill="#2F6ABA" transform="translate(76,235)"/>
<path d="M0 0 C0.33 0 0.66 0 1 0 C1.47105321 9.5257426 1.4482556 20.82761659 -4 29 C-4.06908316 26.02942405 -4.07636851 23.34790099 -3.4375 20.4375 C-2.83394784 17.98230923 -2.83394784 17.98230923 -3.5625 15.5 C-4.11594743 12.33744327 -3.25328462 10.92433078 -2 8 C-1.6503582 5.66905466 -1.31445513 3.33595238 -1 1 C-0.67 0.67 -0.34 0.34 0 0 Z " fill="#2967B3" transform="translate(333,148)"/>
<path d="M0 0 C0.84755859 0.00322266 1.69511719 0.00644531 2.56835938 0.00976562 C3.8899707 0.02233398 3.8899707 0.02233398 5.23828125 0.03515625 C6.57729492 0.04192383 6.57729492 0.04192383 7.94335938 0.04882812 C10.14590112 0.06060642 12.34830724 0.07705461 14.55078125 0.09765625 C14.55078125 1.41765625 14.55078125 2.73765625 14.55078125 4.09765625 C13.76703125 3.93265625 12.98328125 3.76765625 12.17578125 3.59765625 C5.33931964 2.65469603 -0.97965647 2.37363003 -7.44921875 5.09765625 C-7.44921875 3.77765625 -7.44921875 2.45765625 -7.44921875 1.09765625 C-4.6251011 0.1562837 -2.92003843 -0.01959757 0 0 Z " fill="#205EB3" transform="translate(119.44921875,85.90234375)"/>
<path d="M0 0 C9.9 0.33 19.8 0.66 30 1 C29.67 1.99 29.34 2.98 29 4 C22.51877412 4.18343092 16.40111777 3.4800332 10 2.5 C9.03449219 2.35691406 8.06898437 2.21382812 7.07421875 2.06640625 C4.71532665 1.71607574 2.35735455 1.3605065 0 1 C0 0.67 0 0.34 0 0 Z " fill="#3570BE" transform="translate(113,246)"/>
<path d="M0 0 C0.33 0.99 0.66 1.98 1 3 C0.06894211 3.98529428 -0.87012481 4.96302444 -1.8125 5.9375 C-2.33457031 6.48277344 -2.85664063 7.02804688 -3.39453125 7.58984375 C-6.6581126 10.45639574 -10.06089079 10.10687214 -14.1875 10.0625 C-15.81751953 10.04896484 -15.81751953 10.04896484 -17.48046875 10.03515625 C-18.31191406 10.02355469 -19.14335937 10.01195312 -20 10 C-17.6068876 7.6068876 -16.53090916 7.6121653 -13.25 7.125 C-7.51662534 6.08106184 -4.14361246 4.14361246 0 0 Z " fill="#3368B2" transform="translate(247,123)"/>
<path d="M0 0 C1.65 0 3.3 0 5 0 C5 0.66 5 1.32 5 2 C7.475 2.99 7.475 2.99 10 4 C10 4.66 10 5.32 10 6 C10.66 6 11.32 6 12 6 C12 5.34 12 4.68 12 4 C12.66 4.33 13.32 4.66 14 5 C13.67 5.99 13.34 6.98 13 8 C15.31 8.33 17.62 8.66 20 9 C20.33 9.99 20.66 10.98 21 12 C13.48485244 9.90561462 7.28084668 6.65455602 1 2 C0.67 1.34 0.34 0.68 0 0 Z " fill="#2A69BC" transform="translate(55,223)"/>
<path d="M0 0 C0.99 0.33 1.98 0.66 3 1 C-1 5 -5 9 -9 13 C-9.99 12.67 -10.98 12.34 -12 12 C-10.37860535 10.18415766 -8.75313264 8.3722838 -7.125 6.5625 C-6.66480469 6.04623047 -6.20460938 5.52996094 -5.73046875 4.99804688 C-2.2265625 1.11328125 -2.2265625 1.11328125 0 0 Z " fill="#2962B5" transform="translate(45,59)"/>
<path d="M0 0 C0.33 1.32 0.66 2.64 1 4 C-0.06927734 3.76023437 -0.06927734 3.76023437 -1.16015625 3.515625 C-8.30057499 2.21915282 -14.68674772 2.11492167 -21 6 C-21.66 6 -22.32 6 -23 6 C-22.67 5.01 -22.34 4.02 -22 3 C-21.01 3 -20.02 3 -19 3 C-19 2.34 -19 1.68 -19 1 C-12.73 0.67 -6.46 0.34 0 0 Z " fill="#336BB6" transform="translate(239,86)"/>
<path d="M0 0 C3.49695404 0.64758408 6.12552877 1.90241288 9 4 C9.8125 6.1875 9.8125 6.1875 10 8 C4.98886765 6.5682479 3.05530451 4.01554307 0 0 Z " fill="#2E6DBE" transform="translate(45,215)"/>
<path d="M0 0 C1.33804687 0.04060547 1.33804687 0.04060547 2.703125 0.08203125 C3.37859375 0.11683594 4.0540625 0.15164062 4.75 0.1875 C0.91295224 2.74553184 -3.00712791 4.53255724 -7.6875 3.8125 C-8.203125 3.60625 -8.71875 3.4 -9.25 3.1875 C-6.10408067 0.38704377 -4.182936 -0.16511589 0 0 Z " fill="#2E69B9" transform="translate(264.25,238.8125)"/>
<path d="M0 0 C3.63 1.65 7.26 3.3 11 5 C10.01 5.66 9.02 6.32 8 7 C4.3125 6.125 4.3125 6.125 1 5 C0.67 3.35 0.34 1.7 0 0 Z " fill="#3068B2" transform="translate(137,28)"/>
<path d="M0 0 C1.5994614 3.19892281 2.42595236 5.35462576 3.125 8.75 C3.29257812 9.54921875 3.46015625 10.3484375 3.6328125 11.171875 C3.81457031 12.07679687 3.81457031 12.07679687 4 13 C3.01 13.495 3.01 13.495 2 14 C2 12.35 2 10.7 2 9 C1.34 9 0.68 9 0 9 C0 6.03 0 3.06 0 0 Z " fill="#316DC1" transform="translate(327,99)"/>
<path d="M0 0 C4.95 0 9.9 0 15 0 C15 0.99 15 1.98 15 3 C7.575 2.01 7.575 2.01 0 1 C0 0.67 0 0.34 0 0 Z " fill="#336BB4" transform="translate(119,87)"/>
<path d="M0 0 C1.7074998 1.28062485 3.37373596 2.61767557 5 4 C5 4.66 5 5.32 5 6 C5.66 6 6.32 6 7 6 C7.33 6.99 7.66 7.98 8 9 C6.35 8.67 4.7 8.34 3 8 C3 6.68 3 5.36 3 4 C2.01 3.67 1.02 3.34 0 3 C0 2.01 0 1.02 0 0 Z " fill="#2B67B7" transform="translate(304,64)"/>
<path d="M0 0 C1.5 1.375 1.5 1.375 3 3 C3 3.66 3 4.32 3 5 C1.02 5.33 -0.96 5.66 -3 6 C-1.125 1.125 -1.125 1.125 0 0 Z " fill="#2E6BAB" transform="translate(117,1)"/>
<path d="M0 0 C0.66 0.33 1.32 0.66 2 1 C-0.34638956 3.71687212 -2.57176596 4.94515876 -6 6 C-6.66 5.67 -7.32 5.34 -8 5 C-6.71475739 4.13619741 -5.42157581 3.28419631 -4.125 2.4375 C-3.04605469 1.72400391 -3.04605469 1.72400391 -1.9453125 0.99609375 C-1.30335937 0.66738281 -0.66140625 0.33867188 0 0 Z " fill="#2D66B6" transform="translate(57,51)"/>
<path d="M0 0 C1.17571451 3.67410785 1.07366746 7.16929183 1 11 C0.67 11 0.34 11 0 11 C0 9.02 0 7.04 0 5 C-0.66 5 -1.32 5 -2 5 C-2 3.68 -2 2.36 -2 1 C-1.34 0.67 -0.68 0.34 0 0 Z " fill="#3974C3" transform="translate(106,162)"/>
<path d="M0 0 C2 3 2 3 1.625 6.1875 C1.41875 7.115625 1.2125 8.04375 1 9 C0.34 8.34 -0.32 7.68 -1 7 C-0.625 3.375 -0.625 3.375 0 0 Z " fill="#2567B9" transform="translate(20,102)"/>
<path d="M0 0 C1.65 0 3.3 0 5 0 C5 1.32 5 2.64 5 4 C2.03 3.505 2.03 3.505 -1 3 C-0.67 2.01 -0.34 1.02 0 0 Z " fill="#034FAA" transform="translate(115,6)"/>
</svg>
