<?xml version="1.0" encoding="UTF-8"?>
<svg version="1.1" xmlns="http://www.w3.org/2000/svg" width="1192" height="352">
<path d="M0 0 C4.02878753 3.43920887 5.9040437 8.33945352 8.28125 12.96875 C9.72196887 15.5096542 10.93200968 17.03288725 13 19 C13 19.66 13 20.32 13 21 C13.66 21 14.32 21 15 21 C16.66666667 22.66666667 18.33333333 24.33333333 20 26 C29.02164168 32.81635149 36.67843655 33.41281396 47.6484375 33.22265625 C48.98718065 33.21193525 50.32593815 33.20289259 51.66470337 33.19541931 C55.18941379 33.17272021 58.71372273 33.13381473 62.23822021 33.0894165 C95.67001067 32.66828424 95.67001067 32.66828424 111.34375 33.85546875 C112.36479828 33.93209244 113.38584656 34.00871613 114.43783569 34.08766174 C140.33252238 36.31889469 169.70204613 45.99134908 189 64 C189.5775 64.52722656 190.155 65.05445312 190.75 65.59765625 C192 67 192 67 192 69 C192.66 69 193.32 69 194 69 C214.75684656 95.42088802 219.98929132 126.19630215 217 159 C215.11330432 173.85587149 210.11949828 191.91287401 201 204 C200.34386719 204.88429687 199.68773437 205.76859375 199.01171875 206.6796875 C189.98641431 218.25387899 179.91228887 226.34186727 167 233 C166.16597656 233.46019531 165.33195312 233.92039062 164.47265625 234.39453125 C149.3209439 242.13000838 130.77906166 245.0523304 114 247 C112.87400391 247.13535156 111.74800781 247.27070313 110.58789062 247.41015625 C75.1603904 251.49582121 37.21751287 253.33297381 2 247 C0.99130859 246.82839355 -0.01738281 246.65678711 -1.05664062 246.47998047 C-33.57848814 240.83256468 -64.96144636 228.11178966 -84.875 200.625 C-93.07455845 188.06237375 -97.41780727 175.72220182 -100 161 C-100.22558594 159.73542969 -100.45117188 158.47085938 -100.68359375 157.16796875 C-101.87530258 149.71362453 -102.38140056 142.53680673 -102 135 C-101.96422852 134.24251465 -101.92845703 133.4850293 -101.89160156 132.70458984 C-100.70050399 110.12155368 -96.28584186 86.13317714 -82 68 C-81.39285156 67.21625 -80.78570312 66.4325 -80.16015625 65.625 C-71.07448292 54.62557543 -57.64577707 48.68015556 -44.75 43.16796875 C-34.73153862 38.82263901 -27.51596615 33.90753603 -20 26 C-18.71029297 24.70255859 -18.71029297 24.70255859 -17.39453125 23.37890625 C-10.56140662 16.24914986 -5.26821597 8.30584688 0 0 Z M-11.8125 96.21484375 C-15.06361281 101.10220742 -15.66070526 106.25291299 -15 112 C-13.54560825 119.08863206 -10.37456856 125.06068314 -4.26171875 129.16796875 C1.93550954 131.44777812 11.4889724 131.16527619 17.5625 128.5 C22.40020929 125.53188578 25.96684236 120.87808201 27.875 115.5625 C27.91625 114.716875 27.9575 113.87125 28 113 C28.04898438 112.32066406 28.09796875 111.64132813 28.1484375 110.94140625 C28.49165101 103.11349803 25.99499113 97.27631094 20.72265625 91.51171875 C15.81008019 87.20068262 9.81462302 86.42208443 3.453125 86.65625 C-3.19627306 87.58801279 -7.7435944 91.00708685 -11.8125 96.21484375 Z M96.1875 93.875 C92.39220864 99.2968448 89.46528401 104.36300979 90.25 111.16796875 C91.41517686 117.37877756 93.67278185 121.67278185 98.1875 126.1875 C104.36597898 130.16918645 110.25791969 131.68743606 117.57421875 130.640625 C123.76031739 129.00693712 128.52370536 125.3481456 132 120 C134.84994468 113.93870461 135.22880776 107.0517445 133.27734375 100.6171875 C130.47236134 94.64382416 126.39760992 89.90195343 120.08203125 87.5078125 C111.05534558 85.30618185 102.46822271 86.79287943 96.1875 93.875 Z M-10 160 C-12.56792724 168.45276051 -9.76434262 178.12870436 -6.3125 185.9375 C2.21102188 201.75416089 16.66787714 212.3257817 33.421875 217.96484375 C53.86392513 223.87875563 76.82169548 222.06705075 95.859375 212.57421875 C109.61587076 204.56284911 121.57782271 191.49235168 126.31640625 176.21484375 C127.46009579 170.83623523 127.51695142 165.46612567 127 160 C125.30016919 158.30016919 123.13192369 158.87390695 120.80604553 158.87301636 C119.68006454 158.87019653 118.55408356 158.86737671 117.39398193 158.86447144 C116.14772034 158.86649567 114.90145874 158.8685199 113.61743164 158.87060547 C112.31351974 158.86885315 111.00960785 158.86710083 109.66618347 158.86529541 C106.07943655 158.8607211 102.49271826 158.86251074 98.90597081 158.8656745 C95.1592725 158.86819864 91.4125767 158.86586036 87.6658783 158.86428833 C81.37173012 158.86246657 75.07759366 158.86487287 68.78344727 158.86962891 C61.49951521 158.87506918 54.21561116 158.8733106 46.93167979 158.8678025 C40.68709163 158.86326874 34.44251192 158.86262219 28.19792265 158.86524117 C24.4643266 158.86680279 20.73074372 158.86700088 16.99714851 158.86370468 C12.83540303 158.8602875 8.67370602 158.86502003 4.51196289 158.87060547 C3.26772552 158.86858124 2.02348816 158.86655701 0.74154663 158.86447144 C-0.95165459 158.86870117 -0.95165459 158.86870117 -2.67906189 158.87301636 C-4.1565914 158.8735819 -4.1565914 158.8735819 -5.66396999 158.87415886 C-8.02339872 158.84567712 -8.02339872 158.84567712 -10 160 Z " fill="#1056B4" transform="translate(129,36)"/>
<path d="M0 0 C0.87694016 -0.00807175 1.75388031 -0.01614349 2.65739441 -0.02445984 C4.51775119 -0.03831788 6.37813357 -0.04903231 8.23852539 -0.05688477 C11.08333654 -0.07408494 13.92698199 -0.11795311 16.77148438 -0.16210938 C18.57681435 -0.17223699 20.38215423 -0.18075288 22.1875 -0.1875 C23.03866898 -0.20500809 23.88983795 -0.22251617 24.76679993 -0.24055481 C30.59672727 -0.21916281 30.59672727 -0.21916281 33.66333008 1.7956543 C35.76502858 4.94584058 37.15256308 8.21958587 38.47265625 11.74609375 C38.76192993 12.49159988 39.05120361 13.23710602 39.34924316 14.00520325 C39.97244826 15.61409643 40.59096402 17.22481233 41.20526123 18.83712769 C42.84873545 23.14961947 44.52639544 27.44882797 46.19921875 31.75 C46.5397226 32.62831985 46.88022644 33.50663971 47.23104858 34.41157532 C50.58806429 43.05072449 54.11221673 51.61695736 57.66796875 60.17578125 C61.74000394 70.00198862 65.77630682 79.83875776 69.66796875 89.73828125 C70.04356934 90.68823975 70.41916992 91.63819824 70.80615234 92.61694336 C71.13953613 93.47167236 71.47291992 94.32640137 71.81640625 95.20703125 C72.10435059 95.94373047 72.39229492 96.68042969 72.68896484 97.43945312 C73.29296875 99.23828125 73.29296875 99.23828125 73.29296875 101.23828125 C73.95296875 101.23828125 74.61296875 101.23828125 75.29296875 101.23828125 C75.69136963 99.99780029 76.08977051 98.75731934 76.50024414 97.47924805 C78.43277918 91.68827256 80.69566784 86.04380292 82.9765625 80.3828125 C83.42868103 79.25457062 83.88079956 78.12632874 84.34661865 76.96389771 C85.80540203 73.32518344 87.26783034 69.68794743 88.73046875 66.05078125 C89.73201025 63.55626491 90.73285571 61.06146956 91.73364258 58.56665039 C93.21870414 54.86497177 94.70411406 51.16343398 96.19059753 47.46232605 C98.90767156 40.69670118 101.61635067 33.92788696 104.30859375 27.15234375 C104.86530768 25.75284509 105.42202924 24.35334948 105.97875977 22.95385742 C106.94779808 20.51745454 107.91401346 18.07999643 108.87866211 15.6418457 C114.16519263 2.36605737 114.16519263 2.36605737 116.29296875 0.23828125 C118.45515104 0.13781162 120.62064189 0.10746422 122.78515625 0.10546875 C123.7760173 0.10403366 123.7760173 0.10403366 124.78689575 0.10256958 C126.19419448 0.10188702 127.60149633 0.10374657 129.00878906 0.10791016 C131.12442499 0.11317293 133.23984023 0.10801259 135.35546875 0.1015625 C136.72786504 0.10222492 138.1002612 0.10350945 139.47265625 0.10546875 C140.70741699 0.10659668 141.94217773 0.10772461 143.21435547 0.10888672 C148.2521043 0.26870995 153.27338476 0.78195543 158.29296875 1.23828125 C158.29296875 49.41828125 158.29296875 97.59828125 158.29296875 147.23828125 C155.23733728 148.76609699 152.04672993 148.38038379 148.6953125 148.37109375 C147.94584854 148.37205048 147.19638458 148.3730072 146.42420959 148.37399292 C144.83969031 148.37467366 143.25516823 148.37282676 141.6706543 148.36865234 C139.2367532 148.36329508 136.80303602 148.36860472 134.36914062 148.375 C132.83203084 148.37433935 131.29492117 148.37305845 129.7578125 148.37109375 C129.0255394 148.37311798 128.2932663 148.37514221 127.5388031 148.37722778 C122.40792543 148.35323793 122.40792543 148.35323793 121.29296875 147.23828125 C121.19258955 144.69303774 121.1567939 142.17490852 121.16357422 139.62915039 C121.16094574 138.43406105 121.16094574 138.43406105 121.15826416 137.21482849 C121.15384456 134.56767633 121.15678429 131.9205904 121.16015625 129.2734375 C121.15948317 127.44119758 121.15851312 125.60895775 121.15725708 123.77671814 C121.15577991 119.93064527 121.15793504 116.08459557 121.16259766 112.23852539 C121.16829095 107.30071445 121.1650186 102.3629579 121.15902519 97.42514896 C121.15541669 93.63943571 121.15655957 89.85373541 121.15915298 86.06802177 C121.15982166 84.24709504 121.1589959 82.42616715 121.15667343 80.60524178 C121.15414262 78.06239825 121.15799378 75.51964353 121.16357422 72.97680664 C121.16154999 72.21880768 121.15952576 71.46080872 121.15744019 70.67984009 C121.17870531 65.46680812 121.17870531 65.46680812 122.29296875 63.23828125 C119.70134118 64.53409503 119.66411343 65.43481741 118.71166992 68.12670898 C118.41297501 68.95901535 118.11428009 69.79132172 117.80653381 70.64884949 C117.48623703 71.56394791 117.16594025 72.47904633 116.8359375 73.421875 C116.49634506 74.37270462 116.15675262 75.32353424 115.80686951 76.30317688 C115.07421535 78.35573279 114.34462407 80.40938399 113.61773682 82.46398926 C111.71544376 87.83631068 109.78648644 93.19904172 107.859375 98.5625 C107.47356262 99.63770905 107.08775024 100.71291809 106.69024658 101.82070923 C103.44849055 110.84138511 100.14754218 119.83801414 96.74697876 128.80007935 C96.19663317 130.25273645 95.64938321 131.70657031 95.10531616 133.16159058 C94.35569825 135.16431586 93.59562279 137.16272443 92.83203125 139.16015625 C92.20095459 140.82449707 92.20095459 140.82449707 91.55712891 142.52246094 C89.6053371 146.71553395 89.6053371 146.71553395 87.29296875 148.23828125 C84.47387695 148.57885742 84.47387695 148.57885742 81.09375 148.53125 C79.88525391 148.52158203 78.67675781 148.51191406 77.43164062 148.50195312 C76.16900391 148.47681641 74.90636719 148.45167969 73.60546875 148.42578125 C72.33123047 148.41224609 71.05699219 148.39871094 69.74414062 148.38476562 C66.59332818 148.34936324 63.4433583 148.29997915 60.29296875 148.23828125 C56.64760341 141.3058961 53.65342717 134.30092403 50.96484375 126.94921875 C50.5715387 125.8882901 50.17823364 124.82736145 49.77301025 123.73428345 C48.5243289 120.36255967 47.28341836 116.98804099 46.04296875 113.61328125 C45.22709697 111.4047504 44.41069437 109.19641557 43.59375 106.98828125 C42.37620978 103.69683866 41.15916938 100.40521968 39.94445801 97.11273193 C35.77152266 85.80465479 31.53757723 74.51961796 27.29296875 63.23828125 C27.28266129 64.28841904 27.27235382 65.33855682 27.26173401 66.42051697 C27.16417334 76.29479835 27.06145617 86.16901427 26.95362949 96.04318905 C26.89835601 101.12016009 26.84492908 106.19713684 26.7956543 111.27416992 C26.74807584 116.16953788 26.69573567 121.06483346 26.640028 125.96011543 C26.6195748 127.83208996 26.60086674 129.70408435 26.58389473 131.57609367 C26.55991607 134.18874201 26.52985301 136.80125222 26.49829102 139.41381836 C26.49253555 140.19568512 26.48678009 140.97755188 26.48085022 141.78311157 C26.40702091 147.12422909 26.40702091 147.12422909 25.29296875 148.23828125 C22.69937553 148.32679654 20.13257184 148.3535407 17.5390625 148.3359375 C16.76361588 148.33452255 15.98816925 148.3331076 15.18922424 148.33164978 C12.70293381 148.3260347 10.21673215 148.31347971 7.73046875 148.30078125 C6.04882942 148.29576819 4.36718869 148.29120495 2.68554688 148.28710938 C-1.44534691 148.27606038 -5.57617401 148.2587857 -9.70703125 148.23828125 C-9.73035897 129.08913478 -9.7480098 109.93999119 -9.75884342 90.79083347 C-9.76400665 81.90018299 -9.77104985 73.00954131 -9.7824707 64.11889648 C-9.79241673 56.37266898 -9.79888448 48.62644786 -9.80111974 40.88021415 C-9.80242699 36.77607206 -9.80551372 32.67194823 -9.81276131 28.56781197 C-9.81952024 24.70933485 -9.82164847 20.8508836 -9.82013893 16.99240112 C-9.82041532 15.57215675 -9.8224212 14.15191156 -9.82623672 12.73167229 C-9.83117192 10.80086255 -9.82942928 8.8700391 -9.82728577 6.93922424 C-9.82820756 5.85611749 -9.82912935 4.77301073 -9.83007908 3.65708256 C-9.55674089 -1.71603769 -4.21798189 0.03634675 0 0 Z " fill="#0D4289" transform="translate(428.70703125,95.76171875)"/>
<path d="M0 0 C1.17884766 -0.00128906 2.35769531 -0.00257812 3.57226562 -0.00390625 C4.81556641 -0.00003906 6.05886719 0.00382812 7.33984375 0.0078125 C8.55607422 0.00394531 9.77230469 0.00007813 11.02539062 -0.00390625 C12.80719727 -0.00197266 12.80719727 -0.00197266 14.625 0 C15.70789307 0.00112793 16.79078613 0.00225586 17.90649414 0.00341797 C21.71262424 0.14952132 25.49782355 0.66037247 29.27734375 1.1328125 C29.27734375 18.2928125 29.27734375 35.4528125 29.27734375 53.1328125 C31.91734375 50.8228125 34.55734375 48.5128125 37.27734375 46.1328125 C47.57583307 37.61675402 59.15365637 36.01708243 72.13671875 36.90966797 C85.50098957 38.30279565 96.7345918 45.27345081 105.27734375 55.41796875 C117.00849404 71.34208877 119.42785272 91.26420601 116.97998047 110.46533203 C114.32429434 126.36013176 106.38551549 140.21424813 93.52734375 149.9453125 C82.97810434 156.96185908 69.76006444 159.70296312 57.28125 157.63671875 C47.06216082 155.33254195 38.45777389 150.90019878 31.27734375 143.1328125 C31.27734375 142.4728125 31.27734375 141.8128125 31.27734375 141.1328125 C30.61734375 141.1328125 29.95734375 141.1328125 29.27734375 141.1328125 C29.28894531 142.13183594 29.30054688 143.13085938 29.3125 144.16015625 C29.32152344 145.45050781 29.33054687 146.74085938 29.33984375 148.0703125 C29.35144531 149.35808594 29.36304688 150.64585937 29.375 151.97265625 C29.27734375 155.1328125 29.27734375 155.1328125 28.27734375 156.1328125 C25.76810222 156.23368462 23.28697991 156.27253282 20.77734375 156.265625 C20.02646484 156.26658173 19.27558594 156.26753845 18.50195312 156.26852417 C16.91145748 156.26920588 15.32095908 156.26735222 13.73046875 156.26318359 C11.2876972 156.25783517 8.84510954 156.26312884 6.40234375 156.26953125 C4.86067668 156.26887047 3.31900972 156.2675893 1.77734375 156.265625 C1.04193359 156.26764923 0.30652344 156.26967346 -0.45117188 156.27175903 C-5.60770464 156.24776411 -5.60770464 156.24776411 -6.72265625 155.1328125 C-6.82155408 153.14817057 -6.8489789 151.15995597 -6.84963989 149.17285156 C-6.85245972 147.87714233 -6.85527954 146.58143311 -6.85818481 145.24645996 C-6.85624021 143.797119 -6.85419203 142.34777818 -6.85205078 140.8984375 C-6.85340476 139.38269 -6.85518468 137.86694283 -6.85736084 136.35119629 C-6.86193556 132.22321269 -6.86014546 128.09525396 -6.85698175 123.9672699 C-6.85445835 119.65689016 -6.85679563 115.34651263 -6.85836792 111.03613281 C-6.86018967 103.79622005 -6.85778315 96.55631747 -6.85302734 89.31640625 C-6.84758471 80.93387155 -6.84934736 72.55136117 -6.85485375 64.16882706 C-6.85938471 56.9849845 -6.86003551 49.80114928 -6.85741508 42.61730576 C-6.85585221 38.32091625 -6.8556588 34.02453819 -6.85895157 29.72814941 C-6.86183004 25.68990434 -6.85985504 21.65169076 -6.85405731 17.6134491 C-6.85272958 16.12709099 -6.85312404 14.64073025 -6.85531998 13.15437317 C-6.85803095 11.13384086 -6.85403713 9.11330278 -6.84963989 7.09277344 C-6.84926287 5.95934509 -6.84888584 4.82591675 -6.84849739 3.65814209 C-6.61441917 -1.03924595 -4.13147896 0.00433491 0 0 Z M33.68359375 78.984375 C28.64413988 86.68354063 28.37614185 95.14082024 29.27734375 104.1328125 C31.28611905 112.79430599 34.74432412 119.02746608 42.21484375 124.0078125 C49.07629527 127.53002428 56.83275161 127.39493173 64.15234375 125.31640625 C71.58622308 122.06408404 76.13613426 116.51255918 79.65234375 109.3203125 C81.79916805 98.37150858 82.37717297 88.49988763 76.21484375 78.8203125 C71.87572735 73.0469275 66.37443798 69.54674036 59.27734375 68.1328125 C48.67827055 66.83117193 40.28381855 70.60956146 33.68359375 78.984375 Z " fill="#0D448B" transform="translate(875.72265625,87.8671875)"/>
<path d="M0 0 C12.83906921 9.75843048 20.39005835 23.16229306 23 39 C24.50246739 57.15732728 22.09527335 72.91796713 10.89453125 87.796875 C0.18602253 100.30592944 -14.30965752 108.33121305 -30.8046875 109.8671875 C-31.52914062 109.91101563 -32.25359375 109.95484375 -33 110 C-33.93070313 110.06445312 -34.86140625 110.12890625 -35.8203125 110.1953125 C-51.58699962 110.77639433 -67.88208361 105.75558739 -80.3125 95.875 C-88.27921414 88.23380751 -94.09640734 78.61976983 -97 68 C-97.22300781 67.24976563 -97.44601562 66.49953125 -97.67578125 65.7265625 C-101.5911902 50.11819757 -99.51850064 32.43663915 -92.3125 18.125 C-83.97669624 4.21110199 -71.58363476 -5.15494965 -55.99902344 -9.56640625 C-36.86792111 -14.30895486 -16.1275332 -11.43877004 0 0 Z M-57.45703125 29.609375 C-61.43497912 35.77267652 -62.51017899 41.6903614 -62.375 48.9375 C-62.36412354 49.72946777 -62.35324707 50.52143555 -62.34204102 51.33740234 C-62.09162593 60.50920925 -60.24252165 66.581745 -53.8203125 73.33984375 C-49.24177932 77.51554461 -44.12887026 78.98879548 -38 79 C-30.80395092 78.30686042 -24.46200129 75.68167142 -19.4609375 70.36328125 C-12.74838777 61.62911567 -13.04241264 50.51631746 -14 40 C-15.49329426 32.79284326 -19.07711607 27.3693406 -25 23 C-36.87059727 15.95812026 -48.92008327 19.95714878 -57.45703125 29.609375 Z " fill="#0C438B" transform="translate(827,136)"/>
<path d="M0 0 C1.34288086 -0.01836914 1.34288086 -0.01836914 2.71289062 -0.03710938 C16.46004492 -0.0668866 28.89426125 3.63690848 39.0703125 13.28515625 C45.52887557 20.33744373 50.8125 29.43619566 50.8125 39.1875 C47.83890551 40.67429725 45.14950821 40.29862605 41.8359375 40.28515625 C40.80806625 40.28303383 40.80806625 40.28303383 39.75942993 40.28086853 C37.56874239 40.27526675 35.3781567 40.26271406 33.1875 40.25 C31.70312648 40.24498522 30.21875135 40.24042228 28.734375 40.23632812 C25.09371685 40.22529677 21.45311836 40.20803099 17.8125 40.1875 C17.56072998 39.63827881 17.30895996 39.08905762 17.04956055 38.52319336 C16.70707275 37.80268799 16.36458496 37.08218262 16.01171875 36.33984375 C15.67744873 35.62562256 15.34317871 34.91140137 14.9987793 34.17553711 C12.60430171 30.16272974 9.01968937 28.75914617 4.640625 27.625 C-0.69831326 26.74131367 -5.60326422 27.09788124 -10.1875 30.1875 C-12.04434627 33.47268956 -12.37477904 35.18087514 -11.6875 38.875 C-7.78104224 44.89745571 1.3539654 45.8330983 7.875 47.5625 C40.26967013 56.40759657 40.26967013 56.40759657 48.109375 69.32421875 C52.46668118 78.37036527 52.3084077 86.57975893 49.8125 96.1875 C46.90552248 104.26243755 40.10496007 110.91595032 32.8125 115.1875 C30.21181638 116.25458672 27.5703118 117.08196124 24.875 117.875 C23.85889648 118.19307617 23.85889648 118.19307617 22.82226562 118.51757812 C5.54237356 123.76947245 -12.55841348 121.76920441 -28.53149414 113.58398438 C-38.62994166 108.01415121 -45.72777736 100.27558362 -49.08203125 89.24609375 C-49.8307839 86.5690466 -50.53206074 83.88870424 -51.1875 81.1875 C-44.38269118 79.94388693 -37.65344743 79.69489673 -30.75 79.5 C-29.45255859 79.42072266 -28.15511719 79.34144531 -26.81835938 79.25976562 C-17.39132406 79.05220673 -17.39132406 79.05220673 -13.85449219 82.38769531 C-12.01953125 85.09765625 -12.01953125 85.09765625 -10.58520508 87.81665039 C-8.70112503 91.01251089 -6.78875039 91.91274167 -3.29296875 92.859375 C3.48642902 93.91590452 8.7851218 93.63171611 14.8125 90.1875 C16.74378416 87.7733948 16.84999393 86.699917 16.625 83.625 C15.71599406 80.89798217 14.9930501 80.01243688 12.8125 78.1875 C5.72497908 74.89522737 -1.93146304 73.17400476 -9.5 71.375 C-21.38324129 68.39365489 -34.75350314 64.77001317 -42.1875 54.1875 C-47.25901406 45.10886371 -48.34359099 36.90748151 -45.75 26.875 C-42.47810802 16.8871192 -35.76490296 10.37115186 -26.67578125 5.3671875 C-22.94440259 3.59815084 -19.18518144 2.21844197 -15.1875 1.1875 C-14.135625 0.9090625 -14.135625 0.9090625 -13.0625 0.625 C-8.71201241 -0.03703072 -4.39422028 0.0030967 0 0 Z " fill="#0C448B" transform="translate(1056.1875,124.8125)"/>
<path d="M0 0 C0.75728394 0.00202423 1.51456787 0.00404846 2.2947998 0.00613403 C3.06787476 0.00517731 3.84094971 0.00422058 4.63745117 0.00323486 C6.27502524 0.00255313 7.91260199 0.00440697 9.5501709 0.00857544 C12.06536901 0.01392382 14.58038854 0.00863027 17.09558105 0.00222778 C18.68282103 0.00288857 20.2700609 0.00416973 21.8572998 0.00613403 C22.61458374 0.0041098 23.37186768 0.00208557 24.15209961 0 C29.46109849 0.02399522 29.46109849 0.02399522 30.5760498 1.13894653 C30.67783243 2.48599028 30.7112222 3.83828986 30.7164917 5.18916321 C30.72220184 6.06220596 30.72791199 6.93524872 30.73379517 7.83474731 C30.73547195 9.28312988 30.73547195 9.28312988 30.73718262 10.76077271 C30.74462997 12.27807732 30.74462997 12.27807732 30.75222778 13.82603455 C30.76690711 17.19466827 30.77366493 20.56325473 30.7791748 23.93191528 C30.78492648 26.27349346 30.79068421 28.61507163 30.79644775 30.95664978 C30.80697749 35.88224508 30.81280559 40.80782398 30.81628418 45.73342896 C30.82173889 52.01533815 30.8456934 58.29702728 30.87425613 64.57886791 C30.89298519 69.42535507 30.8980938 74.27179065 30.89962006 79.11831093 C30.90262969 81.4317271 30.91060046 83.74514273 30.92380524 86.05852318 C31.02188701 104.58134663 31.0381027 122.96275678 17.57214355 137.32644653 C6.70723388 147.19203966 -8.06908064 150.51862772 -22.4239502 150.13894653 C-37.89637465 148.26443235 -50.75320143 143.49881008 -60.82629395 131.31472778 C-67.41033177 122.34820194 -71.14841095 110.33703996 -70.4239502 99.13894653 C-69.4239502 98.13894653 -69.4239502 98.13894653 -66.18933105 98.02542114 C-64.75580893 98.02558022 -63.32228107 98.03127246 -61.88879395 98.04129028 C-60.75891808 98.0434127 -60.75891808 98.0434127 -59.60621643 98.045578 C-57.1912546 98.05119277 -54.77638419 98.0637477 -52.3614502 98.07644653 C-50.72798799 98.08145963 -49.09452433 98.08602287 -47.46105957 98.09011841 C-43.44865435 98.101167 -39.43631779 98.11844147 -35.4239502 98.13894653 C-35.22406494 98.74947876 -35.02417969 99.36001099 -34.8182373 99.98904419 C-34.552771 100.79390259 -34.28730469 101.59876099 -34.01379395 102.42800903 C-33.75203369 103.22416626 -33.49027344 104.02032349 -33.22058105 104.84060669 C-31.56956443 109.60391361 -30.06155566 113.75747346 -25.4239502 116.13894653 C-19.42851276 117.51494857 -15.90323768 117.36205682 -10.4239502 114.13894653 C-5.55555797 108.13459612 -6.28558501 100.44346613 -6.32629395 93.11038208 C-6.32775421 92.11624802 -6.32921448 91.12211395 -6.33071899 90.09785461 C-6.33451486 87.9469471 -6.3406207 85.79604269 -6.3487854 83.64514732 C-6.36156137 80.24608611 -6.3680672 76.84706395 -6.3729248 73.44798279 C-6.38434075 66.24078645 -6.40360413 59.03362246 -6.4239502 51.82644653 C-6.44751041 43.45855255 -6.46789731 35.09067657 -6.47988892 26.72275734 C-6.48639798 23.36509914 -6.49890241 20.00749628 -6.51159668 16.64985657 C-6.51522663 14.60675099 -6.51857868 12.56364489 -6.52160645 10.52053833 C-6.52677277 9.57978455 -6.53193909 8.63903076 -6.53726196 7.66976929 C-6.53744234 5.49250074 -6.48646568 3.31531741 -6.4239502 1.13894653 C-4.66322436 -0.6217793 -2.34498729 0.0105987 0 0 Z " fill="#0D428A" transform="translate(675.4239501953125,95.86105346679688)"/>
<path d="M0 0 C4.21345649 -0.02503196 8.42687165 -0.04301426 12.64038086 -0.05493164 C14.06877396 -0.05990862 15.49716212 -0.06669262 16.92553711 -0.07543945 C18.99854772 -0.08780044 21.07149005 -0.09329463 23.14453125 -0.09765625 C24.38565674 -0.10289307 25.62678223 -0.10812988 26.90551758 -0.11352539 C31.94874587 0.02630534 36.97555303 0.54323209 42 1 C42 49.18 42 97.36 42 147 C38.94436853 148.52781574 35.75376118 148.14210254 32.40234375 148.1328125 C31.65287979 148.13376923 30.90341583 148.13472595 30.13124084 148.13571167 C28.54672156 148.13639241 26.96219948 148.13454551 25.37768555 148.13037109 C22.94378445 148.12501383 20.51006727 148.13032347 18.07617188 148.13671875 C16.53906209 148.1360581 15.00195242 148.1347772 13.46484375 148.1328125 C12.73257065 148.13483673 12.00029755 148.13686096 11.24583435 148.13894653 C6.11495668 148.11495668 6.11495668 148.11495668 5 147 C4.8996208 144.45475649 4.86382515 141.93662727 4.87060547 139.39086914 C4.86885315 138.59414291 4.86710083 137.79741669 4.86529541 136.97654724 C4.86087581 134.32939508 4.86381554 131.68230915 4.8671875 129.03515625 C4.86651442 127.20291633 4.86554437 125.3706765 4.86428833 123.53843689 C4.86281116 119.69236402 4.86496629 115.84631432 4.86962891 112.00024414 C4.8753222 107.0624332 4.87204985 102.12467665 4.86605644 97.18686771 C4.86244794 93.40115446 4.86359082 89.61545416 4.86618423 85.82974052 C4.86685291 84.00881379 4.86602715 82.1878859 4.86370468 80.36696053 C4.86117387 77.824117 4.86502503 75.28136228 4.87060547 72.73852539 C4.86858124 71.98052643 4.86655701 71.22252747 4.86447144 70.44155884 C4.88573656 65.22852687 4.88573656 65.22852687 6 63 C5.34 63 4.68 63 4 63 C4 62.34 4 61.68 4 61 C4.99 61 5.98 61 7 61 C8.03461311 68.66852142 8.16117127 76.21729032 8.16796875 83.94921875 C8.17119215 85.29287245 8.17455698 86.63652582 8.17805481 87.98017883 C8.18401071 90.78651745 8.18589846 93.59282544 8.18530273 96.39916992 C8.1852015 99.95455679 8.1988294 103.50974224 8.21607494 107.0650816 C8.22732236 109.83902344 8.22921806 112.61291859 8.22869301 115.38688087 C8.23041117 117.32187516 8.24117041 119.25685487 8.25224304 121.19181824 C8.23075302 129.6518188 7.40492419 137.66086806 6 146 C6.94514465 145.83956207 7.89028931 145.67912415 8.86407471 145.51382446 C12.82538989 144.86475905 16.7459118 144.59968924 20.75 144.375 C21.93891846 144.30744507 21.93891846 144.30744507 23.15185547 144.23852539 C28.8815796 143.95666844 34.31099801 144.17417713 40 145 C39.75317223 143.42865295 39.75317223 143.42865295 39.50135803 141.82556152 C38.75762908 135.82331502 38.91442261 129.82886935 38.97827148 123.79101562 C38.98787903 122.48286896 38.99748657 121.17472229 39.00738525 119.82693481 C39.03369155 116.2613555 39.06650529 112.69586296 39.10053515 109.13035011 C39.13505259 105.39613465 39.1635191 101.66187303 39.19264221 97.9276123 C39.24862771 90.8658947 39.31001272 83.80423489 39.37336355 76.74257994 C39.44525804 68.69905043 39.51109372 60.65547484 39.57643402 52.61188984 C39.71090666 36.07453288 39.85294396 19.53724995 40 3 C35.4101602 2.9751756 30.82035999 2.95708127 26.23046875 2.94506836 C24.67089151 2.94005728 23.11131892 2.93324663 21.55175781 2.92456055 C19.30272264 2.91235314 17.0537499 2.90673932 14.8046875 2.90234375 C14.1138205 2.89718246 13.42295349 2.89202118 12.71115112 2.88670349 C9.60306532 2.88634792 6.70628103 3.04966397 3.63720703 3.56860352 C1 4 1 4 -1 3 C-0.67 2.01 -0.34 1.02 0 0 Z " fill="#3660A1" transform="translate(545,96)"/>
<path d="M0 0 C1.30445068 0.03029297 2.60890137 0.06058594 3.95288086 0.09179688 C8.87503765 0.20557949 13.79725042 0.31676925 18.71948242 0.42724609 C20.83440694 0.47506094 22.94931648 0.52354348 25.06420898 0.57275391 C28.13521562 0.64408803 31.2062636 0.71315878 34.27734375 0.78125 C35.7843837 0.81569214 35.7843837 0.81569214 37.3218689 0.85083008 C41.90035479 0.94765112 46.47186654 1.01382192 51.05126953 0.9609375 C51.82048233 0.95284058 52.58969513 0.94474365 53.38221741 0.93640137 C55.40284509 0.90850786 57.42325724 0.86602856 59.44360352 0.82226562 C63.3302337 1.01650375 66.3193191 1.79452002 70 3 C70 2.34 70 1.68 70 1 C70.84175781 1.01160156 71.68351562 1.02320313 72.55078125 1.03515625 C82.73762757 1.10920394 92.88804503 0.7904154 103.06567383 0.35571289 C110.71530468 0.04023521 118.34411124 -0.05664618 126 0 C126 0.33 126 0.66 126 1 C121.64640395 1.48444181 117.29203023 1.96153457 112.9375 2.4375 C111.72771484 2.57220703 110.51792969 2.70691406 109.27148438 2.84570312 C92.20484148 4.70175713 75.34165335 5.2352177 58.1875 5.25 C57.05736481 5.25200409 55.92722961 5.25400818 54.7628479 5.256073 C38.30608363 5.26322805 22.25093861 4.8005897 6 2 C4.79988281 1.80277344 3.59976563 1.60554688 2.36328125 1.40234375 C1.58339844 1.26957031 0.80351563 1.13679688 0 1 C0 0.67 0 0.34 0 0 Z " fill="#2B6ABB" transform="translate(125,281)"/>
<path d="M0 0 C0.33 0 0.66 0 1 0 C1 34.98 1 69.96 1 106 C0.67 106 0.34 106 0 106 C-0.01458252 105.25838623 -0.02916504 104.51677246 -0.04418945 103.75268555 C-0.11859457 100.39709369 -0.21528006 97.04250506 -0.3125 93.6875 C-0.33505859 92.52025391 -0.35761719 91.35300781 -0.38085938 90.15039062 C-0.41630859 89.03212891 -0.45175781 87.91386719 -0.48828125 86.76171875 C-0.52755737 85.2142395 -0.52755737 85.2142395 -0.56762695 83.63549805 C-1.06951957 80.57624857 -1.86408265 80.08792314 -4 78 C-4.35644531 75.67504883 -4.35644531 75.67504883 -4.328125 72.95703125 C-4.32296875 71.96509766 -4.3178125 70.97316406 -4.3125 69.95117188 C-4.291875 68.91541016 -4.27125 67.87964844 -4.25 66.8125 C-4.24484375 65.79607422 -4.2396875 64.77964844 -4.234375 63.73242188 C-4.17593059 58.07427196 -3.83113738 52.59677188 -3 47 C-2.34 47 -1.68 47 -1 47 C-1.309375 46.29875 -1.61875 45.5975 -1.9375 44.875 C-3.86845256 39.65006953 -4.17767726 34.47621641 -4.25 28.9375 C-4.27578125 27.75027344 -4.3015625 26.56304687 -4.328125 25.33984375 C-4 22 -4 22 -2.52734375 19.6171875 C-0.34831614 15.88330387 -0.43726708 12.4402752 -0.3125 8.1875 C-0.27833984 7.39923828 -0.24417969 6.61097656 -0.20898438 5.79882812 C-0.12700125 3.86636881 -0.06181155 1.93320965 0 0 Z " fill="#29579C" transform="translate(705,97)"/>
<path d="M0 0 C0.33 0 0.66 0 1 0 C1.33 10.89 1.66 21.78 2 33 C2.66 33.33 3.32 33.66 4 34 C4.02557814 40.88272295 4.04296162 47.76543341 4.05493164 54.64819336 C4.05992745 56.98446104 4.06672637 59.32072565 4.07543945 61.65698242 C4.19086945 93.42739165 4.19086945 93.42739165 2 100 C1.34 100 0.68 100 0 100 C-0.33 100.99 -0.66 101.98 -1 103 C-0.67 69.01 -0.34 35.02 0 0 Z " fill="#1B589C" transform="translate(670,100)"/>
<path d="M0 0 C0.99 0 1.98 0 3 0 C4.03244437 7.65708119 4.16116459 15.19371255 4.16796875 22.9140625 C4.17119251 24.25532057 4.17455737 25.59657831 4.17805481 26.93783569 C4.18401133 29.73997815 4.18589844 32.54208995 4.18530273 35.34423828 C4.1852016 38.89055896 4.19881881 42.43667723 4.21607494 45.98295021 C4.22733595 48.7526434 4.22921764 51.52228993 4.22869301 54.29200363 C4.2304081 56.22085821 4.24115999 58.14969823 4.25224304 60.07852173 C4.22986087 68.88918512 3.35027961 77.30813578 2 86 C1.67 86 1.34 86 1 86 C0.97686402 75.34307375 0.95907848 64.68615345 0.94818783 54.02920723 C0.94296176 49.08114868 0.93586909 44.13310727 0.92456055 39.18505859 C0.9137219 34.41293036 0.90772108 29.64081864 0.90512276 24.86867905 C0.90327028 23.04495865 0.89965304 21.22123918 0.89426994 19.39752579 C0.88704657 16.84979525 0.88600961 14.30213361 0.88647461 11.75439453 C0.88287933 10.99482452 0.87928406 10.23525452 0.87557983 9.45266724 C0.88594784 4.22810432 0.88594784 4.22810432 2 2 C1.34 2 0.68 2 0 2 C0 1.34 0 0.68 0 0 Z " fill="#376BA3" transform="translate(549,157)"/>
<path d="M0 0 C1.47583955 0.0001591 2.95168467 0.00585225 4.42749023 0.01586914 C5.20293686 0.01728409 5.97838348 0.01869904 6.77732849 0.02015686 C9.26361893 0.02577194 11.74982059 0.03832693 14.23608398 0.05102539 C15.91772331 0.05603845 17.59936405 0.06060169 19.28100586 0.06469727 C23.41189965 0.07574626 27.54272674 0.09302094 31.67358398 0.11352539 C31.67358398 2.09352539 31.67358398 4.07352539 31.67358398 6.11352539 C31.17858398 5.12352539 31.17858398 5.12352539 30.67358398 4.11352539 C29.35358398 4.44352539 28.03358398 4.77352539 26.67358398 5.11352539 C26.34358398 4.45352539 26.01358398 3.79352539 25.67358398 3.11352539 C11.74400095 2.34228541 11.74400095 2.34228541 -1.32641602 6.11352539 C-2.31641602 4.46352539 -3.30641602 2.81352539 -4.32641602 1.11352539 C-3.32641602 0.11352539 -3.32641602 0.11352539 0 0 Z " fill="#26467F" transform="translate(673.326416015625,95.886474609375)"/>
<path d="M0 0 C0.99 0 1.98 0 3 0 C2.67 2.64 2.34 5.28 2 8 C2.33 8 2.66 8 3 8 C3.20005983 11.45772343 3.38267635 14.91616982 3.5625 18.375 C3.61857422 19.34050781 3.67464844 20.30601562 3.73242188 21.30078125 C4.39722379 34.50817923 4.39722379 34.50817923 3 40 C2.01 40.99 1.02 41.98 0 43 C0 28.81 0 14.62 0 0 Z " fill="#084C92" transform="translate(870,121)"/>
<path d="M0 0 C5.65999023 -0.02467467 11.31994932 -0.04284788 16.97998047 -0.05493164 C18.90641831 -0.05996787 20.83285231 -0.06679712 22.75927734 -0.07543945 C25.52442368 -0.08753608 28.28951958 -0.09323533 31.0546875 -0.09765625 C32.3516304 -0.10539818 32.3516304 -0.10539818 33.67477417 -0.11329651 C39.77225659 -0.11387171 39.77225659 -0.11387171 42 1 C42 1.66 42 2.32 42 3 C28.47 3 14.94 3 1 3 C0.67 3.99 0.34 4.98 0 6 C0 4.02 0 2.04 0 0 Z " fill="#264984" transform="translate(420,96)"/>
<path d="M0 0 C8.58 0 17.16 0 26 0 C25.67 17.49 25.34 34.98 25 53 C24.34 52.67 23.68 52.34 23 52 C23.00666183 51.10464035 23.00666183 51.10464035 23.01345825 50.19119263 C23.05760581 43.99483629 23.08783059 37.79852442 23.10986328 31.60205078 C23.11993892 29.28757921 23.13359975 26.97312041 23.15087891 24.65869141 C23.17505865 21.33753307 23.1864673 18.0165426 23.1953125 14.6953125 C23.20563507 13.65569366 23.21595764 12.61607483 23.22659302 11.54495239 C23.22674408 10.58410736 23.22689514 9.62326233 23.22705078 8.63330078 C23.23371262 7.36089035 23.23371262 7.36089035 23.24050903 6.06277466 C23.19015361 3.77651455 23.19015361 3.77651455 21 2 C18.77341846 1.62995706 18.77341846 1.62995706 16.2109375 1.5859375 C14.79941406 1.52792969 14.79941406 1.52792969 13.359375 1.46875 C12.37453125 1.4378125 11.3896875 1.406875 10.375 1.375 C9.38242187 1.33632812 8.38984375 1.29765625 7.3671875 1.2578125 C4.91164615 1.1633686 2.4561159 1.07780125 0 1 C0 0.67 0 0.34 0 0 Z " fill="#12487E" transform="translate(879,89)"/>
<path d="M0 0 C4.21345649 -0.02503196 8.42687165 -0.04301426 12.64038086 -0.05493164 C14.06877396 -0.05990862 15.49716212 -0.06669262 16.92553711 -0.07543945 C25.33368859 -0.12557575 33.63539945 0.01403313 42 1 C41.34 2.32 40.68 3.64 40 5 C40 4.34 40 3.68 40 3 C35.4101602 2.9751756 30.82035999 2.95708127 26.23046875 2.94506836 C24.67089151 2.94005728 23.11131892 2.93324663 21.55175781 2.92456055 C19.30272264 2.91235314 17.0537499 2.90673932 14.8046875 2.90234375 C14.1138205 2.89718246 13.42295349 2.89202118 12.71115112 2.88670349 C9.60306532 2.88634792 6.70628103 3.04966397 3.63720703 3.56860352 C1 4 1 4 -1 3 C-0.67 2.01 -0.34 1.02 0 0 Z " fill="#24447F" transform="translate(545,96)"/>
<path d="M0 0 C2.34917898 2.15341406 3.82443004 4.21667937 5.25 7.0625 C5.78367188 8.10083984 5.78367188 8.10083984 6.328125 9.16015625 C6.54984375 9.76730469 6.7715625 10.37445313 7 11 C6.67 11.66 6.34 12.32 6 13 C3.36 12.01 0.72 11.02 -2 10 C-2.38671875 10.49371094 -2.7734375 10.98742188 -3.171875 11.49609375 C-3.69265625 12.13675781 -4.2134375 12.77742188 -4.75 13.4375 C-5.51570313 14.39462891 -5.51570313 14.39462891 -6.296875 15.37109375 C-8.19667629 17.18810554 -9.43586908 17.60423197 -12 18 C-6 9 -6 9 0 0 Z " fill="#1B62B9" transform="translate(129,36)"/>
<path d="M0 0 C1.19173828 -0.00128906 2.38347656 -0.00257813 3.61132812 -0.00390625 C4.85205078 -0.00003906 6.09277344 0.00382813 7.37109375 0.0078125 C8.61568359 0.00394531 9.86027344 0.00007812 11.14257812 -0.00390625 C12.92825195 -0.00197266 12.92825195 -0.00197266 14.75 0 C15.83998291 0.00112793 16.92996582 0.00225586 18.05297852 0.00341797 C20.80859375 0.1328125 20.80859375 0.1328125 23.80859375 1.1328125 C23.80859375 1.7928125 23.80859375 2.4528125 23.80859375 3.1328125 C12.58859375 3.1328125 1.36859375 3.1328125 -10.19140625 3.1328125 C-10.19140625 2.4728125 -10.19140625 1.8128125 -10.19140625 1.1328125 C-6.75157472 0.0842548 -3.58590625 0.00370691 0 0 Z " fill="#214B87" transform="translate(880.19140625,240.8671875)"/>
<path d="M0 0 C2.32891212 3.49336818 2.23551143 4.86007865 2.1953125 8.98046875 C2.18564453 10.72553711 2.18564453 10.72553711 2.17578125 12.50585938 C2.15902344 13.72080078 2.14226563 14.93574219 2.125 16.1875 C2.11597656 17.41404297 2.10695313 18.64058594 2.09765625 19.90429688 C2.07406017 22.93639295 2.04113841 25.96809938 2 29 C0 28 0 28 -0.8515625 25.7421875 C-3.46076794 16.06967845 -3.19655771 9.45648323 0 0 Z " fill="#1F5799" transform="translate(1012,148)"/>
<path d="M0 0 C1.00268921 -0.02187378 1.00268921 -0.02187378 2.02563477 -0.04418945 C3.97900242 -0.08671077 5.93293076 -0.10040784 7.88671875 -0.11328125 C9.62828247 -0.13515503 9.62828247 -0.13515503 11.4050293 -0.1574707 C14.3125 0.3125 14.3125 0.3125 16.21411133 2.33911133 C16.57657959 2.99032959 16.93904785 3.64154785 17.3125 4.3125 C16.9825 4.9725 16.6525 5.6325 16.3125 6.3125 C15.6525 5.9825 14.9925 5.6525 14.3125 5.3125 C14.3125 4.6525 14.3125 3.9925 14.3125 3.3125 C4.0825 2.9825 -6.1475 2.6525 -16.6875 2.3125 C-17.3475 3.6325 -18.0075 4.9525 -18.6875 6.3125 C-20.6875 3.3125 -20.6875 3.3125 -20.6875 1.3125 C-13.79611025 0.01345898 -6.99327144 0.05124527 0 0 Z " fill="#376EA6" transform="translate(1025.6875,204.6875)"/>
<path d="M0 0 C2.31 0 4.62 0 7 0 C7.33 0.99 7.66 1.98 8 3 C9.051875 2.95875 10.10375 2.9175 11.1875 2.875 C14.80789394 2.99370144 16.77437825 3.51795757 20 5 C23.0685577 5.95892428 25.78976585 6.08917317 29 6 C29 6.33 29 6.66 29 7 C31.31 7.66 33.62 8.32 36 9 C36 9.66 36 10.32 36 11 C29.29644314 10.4447559 23.28652605 9.12555227 16.875 7.125 C16.02035156 6.86847656 15.16570312 6.61195313 14.28515625 6.34765625 C9.36854519 4.84472906 4.68384706 3.11978986 0 1 C0 0.67 0 0.34 0 0 Z " fill="#2F6ABA" transform="translate(88,270)"/>
<path d="M0 0 C1.43352212 0.00015908 2.86704998 0.00585132 4.30053711 0.01586914 C5.43041298 0.01799156 5.43041298 0.01799156 6.58311462 0.02015686 C8.99807646 0.02577163 11.41294687 0.03832656 13.82788086 0.05102539 C15.46134307 0.05603849 17.09480672 0.06060173 18.72827148 0.06469727 C22.74067671 0.07574585 26.75301326 0.09302033 30.76538086 0.11352539 C30.76538086 0.44352539 30.76538086 0.77352539 30.76538086 1.11352539 C20.53538086 1.11352539 10.30538086 1.11352539 -0.23461914 1.11352539 C-0.23461914 5.40352539 -0.23461914 9.69352539 -0.23461914 14.11352539 C-0.89461914 15.43352539 -1.55461914 16.75352539 -2.23461914 18.11352539 C-2.57310566 16.21860534 -2.90518825 14.32254073 -3.23461914 12.42602539 C-3.42024414 11.3702832 -3.60586914 10.31454102 -3.79711914 9.22680664 C-4.18683864 6.45353488 -4.395656 3.90650841 -4.23461914 1.11352539 C-3.23461914 0.11352539 -3.23461914 0.11352539 0 0 Z " fill="#3670AA" transform="translate(609.234619140625,193.886474609375)"/>
<path d="M0 0 C0.33 0 0.66 0 1 0 C1.75155315 27.42590888 1.75155315 27.42590888 -5 39 C-5.66 38.67 -6.32 38.34 -7 38 C-7.25532751 34.93606987 -7.21861333 33.36766788 -5.625 30.6875 C-5.08875 30.130625 -4.5525 29.57375 -4 29 C-3.34 29 -2.68 29 -2 29 C-2.20625 27.7625 -2.4125 26.525 -2.625 25.25 C-3.25531915 21.46808511 -3.25531915 21.46808511 -2.0625 19.28125 C-0.41097203 15.7353223 -0.5289646 12.11836051 -0.375 8.25 C-0.33632813 7.45722656 -0.29765625 6.66445312 -0.2578125 5.84765625 C-0.163892 3.89880584 -0.08087178 1.94943549 0 0 Z " fill="#1D5D99" transform="translate(849,175)"/>
<path d="M0 0 C0.99 0.495 0.99 0.495 2 1 C1.01 1.495 1.01 1.495 0 2 C0 1.34 0 0.68 0 0 Z M-9 0 C-7.86111328 0.34224609 -7.86111328 0.34224609 -6.69921875 0.69140625 C-5.70535156 0.97886719 -4.71148438 1.26632813 -3.6875 1.5625 C-2.20830078 1.99755859 -2.20830078 1.99755859 -0.69921875 2.44140625 C2.08028339 3.25208291 2.08028339 3.25208291 5 2 C10.7510492 1.65815442 16.33371064 2.01455837 22 3 C22 3.33 22 3.66 22 4 C11.51797602 5.64423906 1.31445791 5.60771848 -9 3 C-9 2.01 -9 1.02 -9 0 Z " fill="#315E98" transform="translate(780,241)"/>
<path d="M0 0 C0 0.66 0 1.32 0 2 C5.1693489 1.59443869 5.1693489 1.59443869 10 0 C11.2065625 0.2475 11.2065625 0.2475 12.4375 0.5 C16.61534308 1.08636394 20.25315067 0.62387169 24.4140625 0.05859375 C27.24074763 -0.00545501 28.62271041 0.5323306 31 2 C31 2.33 31 2.66 31 3 C19.45 3 7.9 3 -4 3 C-4 2.34 -4 1.68 -4 1 C-2 0 -2 0 0 0 Z " fill="#013277" transform="translate(424,240)"/>
<path d="M0 0 C2 3 2 3 2 7 C-0.97359449 8.48679725 -3.66299179 8.11112605 -6.9765625 8.09765625 C-7.66181 8.0962413 -8.3470575 8.09482635 -9.05307007 8.09336853 C-11.24375761 8.08776675 -13.4343433 8.07521406 -15.625 8.0625 C-17.10937352 8.05748522 -18.59374865 8.05292228 -20.078125 8.04882812 C-23.71878315 8.03779677 -27.35938164 8.02053099 -31 8 C-31 7.67 -31 7.34 -31 7 C-29.7934375 6.95101562 -28.586875 6.90203125 -27.34375 6.8515625 C-25.72914694 6.77646468 -24.11456461 6.70091997 -22.5 6.625 C-21.70851563 6.5940625 -20.91703125 6.563125 -20.1015625 6.53125 C-14.21707858 6.24184915 -8.34834706 5.67417353 -3 3 C-3 3.66 -3 4.32 -3 5 C-2.01 5 -1.02 5 0 5 C0 3.35 0 1.7 0 0 Z " fill="#3C679D" transform="translate(1105,157)"/>
<path d="M0 0 C0.33 0 0.66 0 1 0 C1.47105321 9.5257426 1.4482556 20.82761659 -4 29 C-4.06908316 26.02942405 -4.07636851 23.34790099 -3.4375 20.4375 C-2.83394784 17.98230923 -2.83394784 17.98230923 -3.5625 15.5 C-4.11594743 12.33744327 -3.25328462 10.92433078 -2 8 C-1.6503582 5.66905466 -1.31445513 3.33595238 -1 1 C-0.67 0.67 -0.34 0.34 0 0 Z " fill="#2967B3" transform="translate(345,183)"/>
<path d="M0 0 C-0.33 0.99 -0.66 1.98 -1 3 C-9.91 3 -18.82 3 -28 3 C-28 2.34 -28 1.68 -28 1 C-24.83350749 0.82991412 -21.6667838 0.66456601 -18.5 0.5 C-17.1696875 0.42845703 -17.1696875 0.42845703 -15.8125 0.35546875 C-10.53287287 0.08372324 -5.28655326 -0.04940704 0 0 Z " fill="#224883" transform="translate(517,241)"/>
<path d="M0 0 C11.55 0 23.1 0 35 0 C24.41515244 5.29242378 11.19345825 3.51235937 0 1 C0 0.67 0 0.34 0 0 Z " fill="#346197" transform="translate(1042,243)"/>
<path d="M0 0 C0.84755859 0.00322266 1.69511719 0.00644531 2.56835938 0.00976562 C3.8899707 0.02233398 3.8899707 0.02233398 5.23828125 0.03515625 C6.57729492 0.04192383 6.57729492 0.04192383 7.94335938 0.04882812 C10.14590112 0.06060642 12.34830724 0.07705461 14.55078125 0.09765625 C14.55078125 1.41765625 14.55078125 2.73765625 14.55078125 4.09765625 C13.76703125 3.93265625 12.98328125 3.76765625 12.17578125 3.59765625 C5.33931964 2.65469603 -0.97965647 2.37363003 -7.44921875 5.09765625 C-7.44921875 3.77765625 -7.44921875 2.45765625 -7.44921875 1.09765625 C-4.6251011 0.1562837 -2.92003843 -0.01959757 0 0 Z " fill="#205EB3" transform="translate(131.44921875,120.90234375)"/>
<path d="M0 0 C9.9 0.33 19.8 0.66 30 1 C29.67 1.99 29.34 2.98 29 4 C22.51877412 4.18343092 16.40111777 3.4800332 10 2.5 C9.03449219 2.35691406 8.06898438 2.21382813 7.07421875 2.06640625 C4.71532665 1.71607574 2.35735455 1.3605065 0 1 C0 0.67 0 0.34 0 0 Z " fill="#3570BE" transform="translate(125,281)"/>
<path d="M0 0 C0.33 0.99 0.66 1.98 1 3 C0.06894211 3.98529428 -0.87012481 4.96302444 -1.8125 5.9375 C-2.33457031 6.48277344 -2.85664063 7.02804688 -3.39453125 7.58984375 C-6.6581126 10.45639574 -10.06089079 10.10687214 -14.1875 10.0625 C-15.81751953 10.04896484 -15.81751953 10.04896484 -17.48046875 10.03515625 C-18.31191406 10.02355469 -19.14335937 10.01195312 -20 10 C-17.6068876 7.6068876 -16.53090916 7.6121653 -13.25 7.125 C-7.51662534 6.08106184 -4.14361246 4.14361246 0 0 Z " fill="#3368B2" transform="translate(259,158)"/>
<path d="M0 0 C0.66 0 1.32 0 2 0 C2.33 1.32 2.66 2.64 3 4 C3.928125 3.67 4.85625 3.34 5.8125 3 C9 2 9 2 12 2 C12 2.66 12 3.32 12 4 C14.64 4 17.28 4 20 4 C20.33 4.66 20.66 5.32 21 6 C14.73 6 8.46 6 2 6 C1.34 4.02 0.68 2.04 0 0 Z " fill="#1D4D89" transform="translate(1071,158)"/>
<path d="M0 0 C1.65 0 3.3 0 5 0 C5 0.66 5 1.32 5 2 C7.475 2.99 7.475 2.99 10 4 C10 4.66 10 5.32 10 6 C10.66 6 11.32 6 12 6 C12 5.34 12 4.68 12 4 C12.66 4.33 13.32 4.66 14 5 C13.67 5.99 13.34 6.98 13 8 C15.31 8.33 17.62 8.66 20 9 C20.33 9.99 20.66 10.98 21 12 C13.48485244 9.90561462 7.28084668 6.65455602 1 2 C0.67 1.34 0.34 0.68 0 0 Z " fill="#2A69BC" transform="translate(67,258)"/>
<path d="M0 0 C0.99 0 1.98 0 3 0 C4.62584614 12.39707684 3.81587365 24.57249605 3 37 C2.67 37 2.34 37 2 37 C1.83251925 32.33712319 1.67194624 27.67407963 1.51782227 23.01074219 C1.46439244 21.42376271 1.40906229 19.83684605 1.35180664 18.25 C1.26992276 15.97149196 1.19483476 13.69284678 1.12109375 11.4140625 C1.09405869 10.70255035 1.06702362 9.99103821 1.03916931 9.25796509 C0.88612829 4.22774341 0.88612829 4.22774341 2 2 C1.34 2 0.68 2 0 2 C0 1.34 0 0.68 0 0 Z " fill="#2E5D98" transform="translate(549,157)"/>
<path d="M0 0 C0.99 0.33 1.98 0.66 3 1 C-1 5 -5 9 -9 13 C-9.99 12.67 -10.98 12.34 -12 12 C-10.37860535 10.18415766 -8.75313264 8.3722838 -7.125 6.5625 C-6.66480469 6.04623047 -6.20460938 5.52996094 -5.73046875 4.99804688 C-2.2265625 1.11328125 -2.2265625 1.11328125 0 0 Z " fill="#2962B5" transform="translate(57,94)"/>
<path d="M0 0 C2.20914 3.31371 2.22481553 4.3446021 2.125 8.1875 C2.10695313 9.08855469 2.08890625 9.98960937 2.0703125 10.91796875 C2.03550781 11.94857422 2.03550781 11.94857422 2 13 C1.34 12.67 0.68 12.34 0 12 C0.33 11.01 0.66 10.02 1 9 C0.34 9 -0.32 9 -1 9 C-1.33 11.64 -1.66 14.28 -2 17 C-2.33 17 -2.66 17 -3 17 C-3.40214229 10.83381819 -1.96818336 5.82254243 0 0 Z " fill="#2D5F9A" transform="translate(1012,148)"/>
<path d="M0 0 C0.33 1.32 0.66 2.64 1 4 C-0.06927734 3.76023437 -0.06927734 3.76023437 -1.16015625 3.515625 C-8.30057499 2.21915282 -14.68674772 2.11492167 -21 6 C-21.66 6 -22.32 6 -23 6 C-22.67 5.01 -22.34 4.02 -22 3 C-21.01 3 -20.02 3 -19 3 C-19 2.34 -19 1.68 -19 1 C-12.73 0.67 -6.46 0.34 0 0 Z " fill="#336BB6" transform="translate(251,121)"/>
<path d="M0 0 C0.33 0 0.66 0 1 0 C1.06058594 0.85722656 1.12117187 1.71445313 1.18359375 2.59765625 C1.61143536 8.43604873 2.059163 14.22057272 3 20 C2.34 20 1.68 20 1 20 C0.67 17.69 0.34 15.38 0 13 C-0.66 13 -1.32 13 -2 13 C-2 10.03 -2 7.06 -2 4 C-1.34 4 -0.68 4 0 4 C0 2.68 0 1.36 0 0 Z " fill="#21558E" transform="translate(904,179)"/>
<path d="M0 0 C10.56 0 21.12 0 32 0 C32 0.66 32 1.32 32 2 C31.01 2.33 30.02 2.66 29 3 C28.67 2.67 28.34 2.34 28 2 C25.9291528 1.8415735 23.85321971 1.74875578 21.77734375 1.68359375 C19.88725586 1.62075195 19.88725586 1.62075195 17.95898438 1.55664062 C16.61849264 1.51682404 15.2779978 1.47711186 13.9375 1.4375 C12.59308477 1.39431958 11.2486834 1.35070544 9.90429688 1.30664062 C6.6029766 1.20014642 3.30157764 1.0981354 0 1 C0 0.67 0 0.34 0 0 Z " fill="#1E5793" transform="translate(609,195)"/>
<path d="M0 0 C1.32 0 2.64 0 4 0 C4 2.31 4 4.62 4 7 C2.68 6.67 1.36 6.34 0 6 C0 8.31 0 10.62 0 13 C-0.33 13 -0.66 13 -1 13 C-1.02686553 11.02090602 -1.04633375 9.04171029 -1.0625 7.0625 C-1.07410156 5.96035156 -1.08570313 4.85820312 -1.09765625 3.72265625 C-1 1 -1 1 0 0 Z " fill="#205597" transform="translate(814,178)"/>
<path d="M0 0 C8.58 0 17.16 0 26 0 C25.67 1.32 25.34 2.64 25 4 C24.44280273 3.67854004 23.88560547 3.35708008 23.31152344 3.02587891 C20.72555868 1.8782 18.83382594 1.68904241 16.015625 1.5859375 C14.61376953 1.52792969 14.61376953 1.52792969 13.18359375 1.46875 C12.21550781 1.4378125 11.24742187 1.406875 10.25 1.375 C8.77466797 1.31699219 8.77466797 1.31699219 7.26953125 1.2578125 C4.84653963 1.16371574 2.42355204 1.07807672 0 1 C0 0.67 0 0.34 0 0 Z " fill="#04346E" transform="translate(879,89)"/>
<path d="M0 0 C0.33 0 0.66 0 1 0 C1 9.57 1 19.14 1 29 C-1 27 -1 27 -1.23046875 23.76953125 C-1.21628906 22.46371094 -1.20210937 21.15789062 -1.1875 19.8125 C-1.18105469 18.51957031 -1.17460938 17.22664063 -1.16796875 15.89453125 C-1.00728646 12.16894409 -0.59561728 8.67376737 0 5 C-0.66 5 -1.32 5 -2 5 C-1.34 3.35 -0.68 1.7 0 0 Z " fill="#20529C" transform="translate(704,114)"/>
<path d="M0 0 C-4.78265322 3.95805784 -10.10750511 3.49341342 -16 3 C-16.66 2.67 -17.32 2.34 -18 2 C-18 1.34 -18 0.68 -18 0 C-17.18015625 0.01160156 -16.3603125 0.02320313 -15.515625 0.03515625 C-13.89914062 0.04869141 -13.89914062 0.04869141 -12.25 0.0625 C-11.18265625 0.07410156 -10.1153125 0.08570313 -9.015625 0.09765625 C-6.09883173 0.10936547 -6.09883173 0.10936547 -3.734375 -0.56640625 C-2 -1 -2 -1 0 0 Z " fill="#376193" transform="translate(1070,218)"/>
<path d="M0 0 C3.35414799 -0.02929977 6.70826253 -0.0468989 10.0625 -0.0625 C11.00544922 -0.07087891 11.94839844 -0.07925781 12.91992188 -0.08789062 C18.0630768 -0.10581103 22.93258427 0.10740389 28 1 C28 1.33 28 1.66 28 2 C23.545 2.495 23.545 2.495 19 3 C19 2.34 19 1.68 19 1 C12.73 1 6.46 1 0 1 C0 0.67 0 0.34 0 0 Z " fill="#326297" transform="translate(1046,125)"/>
<path d="M0 0 C0.99 0.495 0.99 0.495 2 1 C2.02696365 2.79158489 2.04637917 4.58328473 2.0625 6.375 C2.07410156 7.37273437 2.08570313 8.37046875 2.09765625 9.3984375 C2 12 2 12 1 14 C1.66 14 2.32 14 3 14 C2.34 15.98 1.68 17.96 1 20 C0.67 20 0.34 20 0 20 C0 13.4 0 6.8 0 0 Z " fill="#144F98" transform="translate(671,101)"/>
<path d="M0 0 C5.61 0.33 11.22 0.66 17 1 C17 1.33 17 1.66 17 2 C16.32453125 2.04898438 15.6490625 2.09796875 14.953125 2.1484375 C14.06109375 2.22320312 13.1690625 2.29796875 12.25 2.375 C11.36828125 2.44460937 10.4865625 2.51421875 9.578125 2.5859375 C7.00933618 2.99850055 5.24158985 3.71160957 3 5 C2.01 3.35 1.02 1.7 0 0 Z " fill="#0F3774" transform="translate(669,97)"/>
<path d="M0 0 C3.49695404 0.64758408 6.12552877 1.90241288 9 4 C9.8125 6.1875 9.8125 6.1875 10 8 C4.98886765 6.5682479 3.05530451 4.01554307 0 0 Z " fill="#2E6DBE" transform="translate(57,250)"/>
<path d="M0 0 C1.33804687 0.04060547 1.33804687 0.04060547 2.703125 0.08203125 C3.37859375 0.11683594 4.0540625 0.15164063 4.75 0.1875 C0.91295224 2.74553184 -3.00712791 4.53255724 -7.6875 3.8125 C-8.203125 3.60625 -8.71875 3.4 -9.25 3.1875 C-6.10408067 0.38704377 -4.182936 -0.16511589 0 0 Z " fill="#2E69B9" transform="translate(276.25,273.8125)"/>
<path d="M0 0 C5.445 1.485 5.445 1.485 11 3 C11 3.33 11 3.66 11 4 C6.45194365 4.17835515 3.1205746 3.99785435 -1 2 C-0.67 1.34 -0.34 0.68 0 0 Z M9 0 C9.99 0.495 9.99 0.495 11 1 C10.01 1.495 10.01 1.495 9 2 C9 1.34 9 0.68 9 0 Z " fill="#275190" transform="translate(771,241)"/>
<path d="M0 0 C3.63 1.65 7.26 3.3 11 5 C10.01 5.66 9.02 6.32 8 7 C4.3125 6.125 4.3125 6.125 1 5 C0.67 3.35 0.34 1.7 0 0 Z " fill="#3068B2" transform="translate(149,63)"/>
<path d="M0 0 C1.5625 1.8125 1.5625 1.8125 3 4 C2.67 4.99 2.34 5.98 2 7 C0.5 5.625 0.5 5.625 -1 4 C-1 3.34 -1 2.68 -1 2 C-1.66 2 -2.32 2 -3 2 C-3 3.98 -3 5.96 -3 8 C-3.33 8 -3.66 8 -4 8 C-4 5.69 -4 3.38 -4 1 C-2.68 0.67 -1.36 0.34 0 0 Z " fill="#375F8F" transform="translate(908,227)"/>
<path d="M0 0 C2.35333796 4.70667591 2.17102038 6.8693886 2 12 C1.01 12 0.02 12 -1 12 C-0.67 8.04 -0.34 4.08 0 0 Z " fill="#1A5797" transform="translate(847,166)"/>
<path d="M0 0 C2.02350324 3.03525486 2.32124018 4.19426202 2.625 7.6875 C2.69976563 8.49574219 2.77453125 9.30398437 2.8515625 10.13671875 C2.90054687 10.75160156 2.94953125 11.36648437 3 12 C2.01 12.495 2.01 12.495 1 13 C-0.32229189 10.35541621 -0.09677194 8.32238699 -0.0625 5.375 C-0.05347656 4.37210938 -0.04445313 3.36921875 -0.03515625 2.3359375 C-0.02355469 1.56507813 -0.01195312 0.79421875 0 0 Z " fill="#2A579B" transform="translate(1105,198)"/>
<path d="M0 0 C0.33 0 0.66 0 1 0 C1 4.95 1 9.9 1 15 C0.67 15 0.34 15 0 15 C-2.27571116 5.98468271 -2.27571116 5.98468271 -1.125 1.875 C-0.75375 1.25625 -0.3825 0.6375 0 0 Z " fill="#205999" transform="translate(704,195)"/>
<path d="M0 0 C1.5994614 3.19892281 2.42595236 5.35462576 3.125 8.75 C3.29257812 9.54921875 3.46015625 10.3484375 3.6328125 11.171875 C3.81457031 12.07679688 3.81457031 12.07679688 4 13 C3.01 13.495 3.01 13.495 2 14 C2 12.35 2 10.7 2 9 C1.34 9 0.68 9 0 9 C0 6.03 0 3.06 0 0 Z " fill="#316DC1" transform="translate(339,134)"/>
<path d="M0 0 C0.66 0.99 1.32 1.98 2 3 C-0.31 4.65 -2.62 6.3 -5 8 C-5.66 7.67 -6.32 7.34 -7 7 C-4.69 4.69 -2.38 2.38 0 0 Z " fill="#274D86" transform="translate(914,133)"/>
<path d="M0 0 C4.95 0 9.9 0 15 0 C15 0.99 15 1.98 15 3 C7.575 2.01 7.575 2.01 0 1 C0 0.67 0 0.34 0 0 Z " fill="#336BB4" transform="translate(131,122)"/>
<path d="M0 0 C1.7074998 1.28062485 3.37373596 2.61767557 5 4 C5 4.66 5 5.32 5 6 C5.66 6 6.32 6 7 6 C7.33 6.99 7.66 7.98 8 9 C6.35 8.67 4.7 8.34 3 8 C3 6.68 3 5.36 3 4 C2.01 3.67 1.02 3.34 0 3 C0 2.01 0 1.02 0 0 Z " fill="#2B67B7" transform="translate(316,99)"/>
<path d="M0 0 C1.5 1.375 1.5 1.375 3 3 C3 3.66 3 4.32 3 5 C1.02 5.33 -0.96 5.66 -3 6 C-1.125 1.125 -1.125 1.125 0 0 Z " fill="#2E6BAB" transform="translate(129,36)"/>
<path d="M0 0 C2.64 0 5.28 0 8 0 C5.82575883 2.50037734 4.26954202 3.43628586 1 4 C0.67 2.68 0.34 1.36 0 0 Z " fill="#053C75" transform="translate(869,89)"/>
<path d="M0 0 C0.99 0 1.98 0 3 0 C3.625 3.375 3.625 3.375 4 7 C3.34 7.66 2.68 8.32 2 9 C1.34 6.03 0.68 3.06 0 0 Z " fill="#255592" transform="translate(462,172)"/>
<path d="M0 0 C0.66 0.33 1.32 0.66 2 1 C-0.34638956 3.71687212 -2.57176596 4.94515876 -6 6 C-6.66 5.67 -7.32 5.34 -8 5 C-6.71475739 4.13619741 -5.42157581 3.28419631 -4.125 2.4375 C-3.04605469 1.72400391 -3.04605469 1.72400391 -1.9453125 0.99609375 C-1.30335937 0.66738281 -0.66140625 0.33867188 0 0 Z " fill="#2D66B6" transform="translate(69,86)"/>
<path d="M0 0 C1.17571451 3.67410785 1.07366746 7.16929183 1 11 C0.67 11 0.34 11 0 11 C0 9.02 0 7.04 0 5 C-0.66 5 -1.32 5 -2 5 C-2 3.68 -2 2.36 -2 1 C-1.34 0.67 -0.68 0.34 0 0 Z " fill="#3974C3" transform="translate(118,197)"/>
<path d="M0 0 C0.33 0 0.66 0 1 0 C1.25 3.3125 1.25 3.3125 1 7 C-0.32 7.99 -1.64 8.98 -3 10 C-2.01 6.7 -1.02 3.4 0 0 Z " fill="#265693" transform="translate(516,165)"/>
<path d="M0 0 C6.75 0.875 6.75 0.875 9 2 C9 2.66 9 3.32 9 4 C5.17902761 3.46930939 2.93828597 2.50298434 0 0 Z " fill="#26538D" transform="translate(1027,237)"/>
<path d="M0 0 C2 3 2 3 1.625 6.1875 C1.41875 7.115625 1.2125 8.04375 1 9 C0.34 8.34 -0.32 7.68 -1 7 C-0.625 3.375 -0.625 3.375 0 0 Z " fill="#2567B9" transform="translate(32,137)"/>
<path d="M0 0 C1.65 0 3.3 0 5 0 C5 1.32 5 2.64 5 4 C2.03 3.505 2.03 3.505 -1 3 C-0.67 2.01 -0.34 1.02 0 0 Z " fill="#034FAA" transform="translate(127,41)"/>
</svg>
